# xmcd
#
# Track frame offsets:
#	150
#	20311
#	44622
#	62586
#	84436
#	102641
#	129187
#	142834
#	167468
#	191235
#	213841
#	233814
#
# Disc length: 3413 seconds
# Revision: 0
# Processed by: cddbd v1.5.2PL0 Copyright (c) Steve Scherf et al.
# Submitted via: dBpowerAMP V12.0
#
DISCID=9a0d530c
DTITLE=Tas Cru - You Keep the Money
DYEAR=2014
DGENRE=Blues
TTITLE0=You Keep The Money
TTITLE1=A Month Of Somedays
TTITLE2=Half The Time
TTITLE3=La Belle Poutine
TTITLE4=Heart Trouble
TTITLE5=A Little More Time
TTITLE6=One Bad Habit
TTITLE7=Take Me Back To Tulsa
TTITLE8=Count On Me
TTITLE9=Holding On To You
TTITLE10=Bringing Out The Beast
TTITLE11=Thinking How To Tell Me Goodbye
EXTD=
EXTT0=
EXTT1=
EXTT2=
EXTT3=
EXTT4=
EXTT5=
EXTT6=
EXTT7=
EXTT8=
EXTT9=
EXTT10=
EXTT11=
PLAYORDER=
